# xmcd
#
# Track frame offsets:
#	150
#	17110
#	34445
#	54350
#	74820
#	93217
#	106675
#	122687
#	134942
#	150697
#	164734
#
# Disc length: 2343 seconds
#
# Revision: 1
# Processed by: cddbd v1.4PL0 Copyright (c) Steve Scherf et al.
# Submitted via: EasyCDDAExtractor 5.0.6
#
DISCID=9e09250b
DTITLE=Rolando Boldrin - Caipira
DYEAR=2001
DGENRE=MPB
TTITLE0=Casinha de Páia
TTITLE1=Pomba do Mato
TTITLE2=Romance de uma Caveira
TTITLE3=Vaca Estrela e Boi Fubá
TTITLE4=Vide-vida Marvada
TTITLE5=Vou Buscá Boiada
TTITLE6=Lá vai Minha Garça Branca
TTITLE7=Coração de Violeiro
TTITLE8=Folha Seca
TTITLE9=Recordação
TTITLE10=Caçada de Onça
EXTD=
EXTT0=
EXTT1=
EXTT2=
EXTT3=
EXTT4=
EXTT5=
EXTT6=
EXTT7=
EXTT8=
EXTT9=
EXTT10=
PLAYORDER=
